<?xml version="1.0" standalone="no"?>
<!DOCTYPE svg PUBLIC "-//W3C//DTD SVG 20010904//EN"
 "http://www.w3.org/TR/2001/REC-SVG-20010904/DTD/svg10.dtd">
<svg version="1.0" xmlns="http://www.w3.org/2000/svg"
 width="500.000000pt" height="500.000000pt" viewBox="0 0 500.000000 500.000000"
 preserveAspectRatio="xMidYMid meet">
<metadata>
Created by potrace 1.14, written by Peter Selinger 2001-2017
</metadata>
<g transform="translate(0.000000,500.000000) scale(0.100000,-0.100000)"
fill="#000000" stroke="none">
<path d="M2323 4509 c-122 -12 -298 -58 -411 -107 -128 -55 -229 -121 -326
-213 -231 -218 -337 -501 -323 -859 8 -204 47 -353 130 -499 80 -142 286 -333
482 -449 39 -23 219 -111 400 -197 408 -193 492 -235 577 -292 135 -89 180
-173 181 -338 1 -132 -23 -197 -102 -276 -111 -110 -260 -155 -490 -146 -275
10 -448 91 -721 335 -73 64 -99 82 -123 82 -35 0 -31 4 -262 -264 l-160 -185
-401 -1 c-455 0 -466 -2 -539 -75 -70 -70 -75 -96 -75 -425 0 -329 5 -355 75
-425 81 -82 -122 -75 2265 -75 2360 0 2181 -5 2254 66 20 19 46 54 59 77 21
41 22 50 22 357 0 307 -1 316 -22 357 -13 23 -39 58 -59 77 -67 65 -78 66
-561 66 -238 0 -433 2 -433 3 0 2 9 30 20 61 68 199 77 490 20 711 -62 245
-234 467 -490 634 -152 99 -259 155 -640 331 -506 233 -583 294 -611 483 -36
254 157 435 467 437 221 1 424 -85 647 -274 67 -58 101 -72 141 -62 16 4 89
84 210 232 200 242 208 257 168 314 -21 30 -158 160 -227 216 -182 147 -434
262 -664 303 -129 24 -354 33 -478 20z"/>
</g>
</svg>
